<svg width="20" height="20" viewBox="0 0 20 20" fill="none" xmlns="http://www.w3.org/2000/svg">
<path d="M1.76667 6.50845C2.39896 9.37769 3.83884 12.0062 5.91638 14.0837C7.99392 16.1613 10.6224 17.6012 13.4917 18.2334C14.3936 18.4151 15.3308 18.2557 16.1221 17.7862C16.9133 17.3167 17.5022 16.5705 17.775 15.6918L18.2 14.3584L14.0333 12.2834L12.05 14.2668C10.6408 13.6595 9.3555 12.7979 8.25833 11.7251C7.20046 10.6245 6.35314 9.33939 5.75833 7.93345L7.71667 5.95011L5.64167 1.78345L4.30833 2.20845C3.42623 2.4814 2.67731 3.07293 2.20746 3.86782C1.73761 4.66272 1.58048 5.60404 1.76667 6.50845V6.50845Z" fill="black"/>
</svg>
