<svg width="48" height="49" viewBox="0 0 48 49" fill="none" xmlns="http://www.w3.org/2000/svg">
<g clip-path="url(#clip0_1_392)">
<path d="M23.9905 27.3347C24.5089 27.3347 24.9298 26.9139 24.9298 26.3954C24.9298 25.8769 24.5089 25.4561 23.9905 25.4561C23.472 25.4561 23.0511 25.8769 23.0511 26.3954C23.0511 26.9139 23.472 27.3347 23.9905 27.3347Z" fill="black"/>
<path d="M23.454 47.825C23.6173 47.9417 23.8084 48 24 48C24.1915 48 24.3827 47.9417 24.546 47.825C34.1165 40.9888 43.726 37.9892 43.726 23.923V6.50859C43.726 6.02021 43.3514 5.61329 42.8648 5.57256L40.4233 5.36855C34.8258 4.90218 29.319 3.06241 24.4979 0.0488324C24.1934 -0.141603 23.8066 -0.141603 23.5021 0.0488324C18.6806 3.06241 13.1738 4.90218 7.5763 5.36892L5.13514 5.57256C4.64822 5.61329 4.27396 6.02021 4.27396 6.50859V23.923C4.27396 38.3858 15.233 41.9527 23.454 47.825ZM6.15263 7.37271L7.73262 7.24098C13.435 6.76544 19.0461 4.93814 24 1.94768C28.9535 4.93814 34.5649 6.76544 40.267 7.24098L41.8473 7.37271V23.923C41.8473 36.6066 33.3959 39.3281 23.9985 45.9111C15.7511 40.1863 6.15263 36.9375 6.15263 23.923V7.37271Z" fill="black"/>
<path d="M23.4525 40.9973C23.7938 41.2303 24.2235 41.2134 24.5474 40.9727C33.051 35.0868 38.09 33.1502 38.09 23.9241V11.6038C38.09 11.1389 37.7499 10.7437 37.2901 10.6748C32.7945 9.99924 28.4681 8.60015 24.4308 6.51637C24.1402 6.36629 23.7941 6.38537 23.5278 6.53728C19.5018 8.61006 15.1893 10.0022 10.7099 10.6748C10.2501 10.7437 9.90997 11.1386 9.90997 11.6038V23.9241C9.90997 33.2371 15.4289 35.5227 23.4525 40.9973ZM11.7886 12.4048C15.6953 11.744 19.4732 10.5555 23.0511 8.8658V22.6381C23.0511 23.1569 23.4716 23.5774 23.9905 23.5774C24.5093 23.5774 24.9298 23.1569 24.9298 22.6381V8.857C28.5128 10.5507 32.2977 11.7425 36.2113 12.4048V23.9241C36.2113 31.5599 32.6345 33.2247 24.9298 38.4354V30.1527C24.9298 29.6339 24.5093 29.2134 23.9905 29.2134C23.4716 29.2134 23.0511 29.6339 23.0511 30.1527V38.4626C15.8524 33.6705 11.7886 31.6227 11.7886 23.9241V12.4048Z" fill="black"/>
</g>
<defs>
<clipPath id="clip0_1_392">
<rect width="48" height="48.0938" fill="white"/>
</clipPath>
</defs>
</svg>
