<svg width="24" height="24" viewBox="0 0 24 24" fill="none" xmlns="http://www.w3.org/2000/svg">
<path d="M12 10C12.7911 10 13.5645 9.76541 14.2223 9.32588C14.8801 8.88635 15.3928 8.26164 15.6955 7.53074C15.9983 6.79983 16.0775 5.99556 15.9231 5.21964C15.7688 4.44372 15.3878 3.73098 14.8284 3.17157C14.269 2.61216 13.5563 2.2312 12.7804 2.07686C12.0044 1.92252 11.2002 2.00173 10.4693 2.30448C9.73836 2.60723 9.11365 3.11992 8.67412 3.77772C8.2346 4.43552 8 5.20888 8 6C8 7.06087 8.42143 8.07828 9.17157 8.82843C9.92172 9.57857 10.9391 10 12 10ZM19.71 16.2C17.6631 14.1592 14.8905 13.0132 12 13.0132C9.10952 13.0132 6.33695 14.1592 4.29 16.2L4 16.5V21H20V16.5L19.71 16.2Z" fill="black"/>
</svg>
