<svg width="52" height="52" viewBox="0 0 52 52" fill="none" xmlns="http://www.w3.org/2000/svg">
<g clip-path="url(#clip0_1_367)">
<path d="M26.0185 51.0655H26.0165C12.196 51.0655 0.952004 39.8215 0.951004 26.0005C0.951004 12.18 12.1945 0.936035 26.0155 0.936035C39.836 0.936035 51.0795 12.18 51.0795 26.0005C51.0795 39.8215 39.8375 51.0655 26.0185 51.0655ZM26.0155 2.93604C13.2975 2.93604 2.951 13.283 2.951 26.0005C2.952 38.7185 13.299 49.0655 26.0165 49.0655H26.0185C38.7345 49.0655 49.0795 38.719 49.0795 26.0005C49.0795 13.283 38.733 2.93604 26.0155 2.93604Z" fill="white"/>
<path d="M26.018 43.75H26.0165C16.2295 43.75 8.2665 35.787 8.2655 26C8.2655 16.213 16.228 8.25049 26.0155 8.25049C35.803 8.25049 43.7655 16.213 43.7655 26C43.7655 35.787 35.804 43.75 26.018 43.75ZM26.0155 10.2505C17.331 10.2505 10.2655 17.3155 10.2655 26C10.2665 34.685 17.3325 41.75 26.0165 41.75H26.018C34.701 41.75 41.7655 34.6845 41.7655 26C41.7655 17.3155 34.7 10.2505 26.0155 10.2505Z" fill="white"/>
<path d="M26.0155 29.1171C25.1835 29.1171 24.401 28.7941 23.8125 28.2071C22.596 26.9881 22.5965 25.0101 23.8115 23.7961C24.4005 23.2071 25.183 22.8831 26.0155 22.8831C26.848 22.8831 27.6305 23.2071 28.2195 23.7966C29.4345 25.0146 29.4335 26.9926 28.2185 28.2061C27.63 28.7941 26.8475 29.1171 26.0155 29.1171ZM26.0155 24.8831C25.717 24.8831 25.437 24.9991 25.2255 25.2106C24.79 25.6461 24.7905 26.3556 25.2265 26.7926C25.645 27.2106 26.383 27.2131 26.805 26.7911C27.2405 26.3561 27.24 25.6466 26.8045 25.2096C26.594 24.9996 26.314 24.8831 26.0155 24.8831Z" fill="white"/>
<path d="M27.5125 25.5034C27.2565 25.5034 27.001 25.4059 26.8055 25.2104C26.415 24.8199 26.415 24.1869 26.8055 23.7964L33.707 16.8949C34.0975 16.5044 34.7305 16.5044 35.121 16.8949C35.5115 17.2854 35.5115 17.9184 35.121 18.3089L28.2195 25.2104C28.0245 25.4059 27.7685 25.5034 27.5125 25.5034Z" fill="white"/>
<path d="M24.508 25.4931C24.252 25.4931 23.9965 25.3956 23.801 25.2001L18.676 20.0746C18.2855 19.6841 18.2855 19.0511 18.676 18.6601C19.0665 18.2701 19.6995 18.2696 20.09 18.6601L25.215 23.7861C25.6055 24.1766 25.6055 24.8096 25.215 25.2001C25.0195 25.3961 24.7635 25.4931 24.508 25.4931Z" fill="white"/>
</g>
<defs>
<clipPath id="clip0_1_367">
<rect width="52" height="52" fill="white"/>
</clipPath>
</defs>
</svg>
