<svg width="24" height="24" viewBox="0 0 24 24" fill="none" xmlns="http://www.w3.org/2000/svg">
<path d="M2.12 7.80989C2.87875 11.253 4.60661 14.4072 7.09966 16.9002C9.59271 19.3933 12.7469 21.1211 16.19 21.8799C17.2723 22.0979 18.397 21.9066 19.3465 21.3432C20.2959 20.7798 21.0027 19.8843 21.33 18.8299L21.84 17.2299L16.84 14.7399L14.46 17.1199C12.769 16.3911 11.2266 15.3572 9.91 14.0699C8.64055 12.7491 7.62377 11.207 6.91 9.51989L9.26 7.13989L6.77 2.13989L5.17 2.64989C4.11148 2.97743 3.21278 3.68727 2.64896 4.64114C2.08514 5.59502 1.89658 6.72461 2.12 7.80989Z" fill="white"/>
</svg>
